<?xml version="1.0" encoding="utf-8"?>
<!-- Svg Vector Icons : http://www.onlinewebfonts.com/icon -->
<!DOCTYPE svg PUBLIC "-//W3C//DTD SVG 1.1//EN" "http://www.w3.org/Graphics/SVG/1.1/DTD/svg11.dtd">
<svg version="1.1" xmlns="http://www.w3.org/2000/svg" xmlns:xlink="http://www.w3.org/1999/xlink" x="0px" y="0px" viewBox="0 0 256 256" enable-background="new 0 0 256 256" xml:space="preserve">
<metadata> Svg Vector Icons : http://www.onlinewebfonts.com/icon </metadata>
<g><g><g><path fill="#000000" d="M104.4,27.9l-15.2,8.2L89,50.9l-0.1,14.8l-13.8,6.8l-13.8,6.8v14.7v14.7l-11.7,6.7l-11.6,6.6l-0.1,14.7l-0.1,14.8l-13.8,6.9L10,165.3v17.6c0,16.4,0,17.6,0.8,17.9c1.1,0.3,70.6,20,100.4,28.5c13.5,3.8,24.7,7,24.9,7.1c0.3,0.1,25.1-12.8,55.1-28.5l54.7-28.7v-61.7V55.6l-63.2-17.9c-34.7-9.9-63.2-17.9-63.2-17.9C119.6,19.7,112.8,23.4,104.4,27.9z M154,55c32.6,9.3,59.6,17,60,17.1c0.7,0.2,0.8,1.3,0.8,14.8c0,11.3-0.1,14.5-0.6,14.5c-0.3,0-27.8-7.8-61-17.2L92.8,66.9l-0.1-14c-0.1-14.3,0-14.7,1.6-14.8C94.6,38.1,121.5,45.7,154,55z M127.1,98.2l60.1,17.1V130v14.6l-16-4.6c-8.9-2.5-36.3-10.3-61-17.3l-45-12.8L65,96c-0.1-12.6,0-13.9,0.7-14.4c0.4-0.3,0.9-0.6,1-0.6C66.8,81.1,94,88.8,127.1,98.2z M103.6,141.1l60.1,17.2V173c0,11.5-0.1,14.6-0.6,14.4c-0.3-0.1-21.9-6.2-47.9-13.7c-26-7.4-53.2-15.1-60.4-17.2l-13.1-3.7L41.5,139c0-7.6,0-14.1,0.1-14.4c0.1-0.3,0.6-0.6,1-0.6C43.1,123.9,70.5,131.7,103.6,141.1z M62.5,180.2c25.8,7.3,53.1,15,60.5,17.2l13.5,3.8v15.4c0,12-0.1,15.4-0.6,15.4c-0.3,0-11.2-3-24.1-6.7c-13-3.6-40.2-11.4-60.5-17.2l-37.1-10.5v-15.1c0-11.7,0.1-15.1,0.6-15.3c0.3-0.1,0.6-0.3,0.6-0.3C15.4,166.9,36.6,172.9,62.5,180.2z"/></g></g></g>
</svg>